<?xml version="1.0" standalone="no"?>
<!DOCTYPE svg PUBLIC "-//W3C//DTD SVG 20010904//EN"
 "http://www.w3.org/TR/2001/REC-SVG-20010904/DTD/svg10.dtd">
<svg version="1.0" xmlns="http://www.w3.org/2000/svg"
 width="700.000000pt" height="700.000000pt" viewBox="0 0 700.000000 700.000000"
 preserveAspectRatio="xMidYMid meet">
<metadata>
Created by potrace 1.14, written by Peter Selinger 2001-2017
</metadata>
<g transform="translate(0.000000,700.000000) scale(0.100000,-0.100000)"
fill="#000000" stroke="none">
<path d="M3327 6964 c-1 -1 -45 -4 -97 -8 -79 -5 -180 -18 -330 -40 -359 -55
-843 -234 -1178 -438 -48 -29 -95 -57 -104 -63 -227 -135 -552 -421 -773 -680
-341 -400 -604 -918 -725 -1433 -38 -159 -38 -157 -46 -217 -3 -27 -8 -52 -9
-55 -2 -3 -6 -37 -10 -75 -4 -39 -9 -79 -11 -90 -23 -115 -22 -611 1 -752 2
-16 7 -50 10 -78 13 -106 14 -117 19 -133 3 -9 8 -37 11 -61 3 -24 8 -47 10
-51 2 -4 7 -22 10 -41 22 -125 111 -413 170 -554 7 -16 19 -45 26 -64 29 -73
154 -320 200 -394 27 -43 49 -80 49 -82 0 -8 161 -238 206 -294 140 -175 301
-347 435 -463 92 -81 102 -89 184 -152 387 -300 845 -520 1305 -627 202 -46
210 -48 327 -64 187 -25 270 -30 488 -30 266 1 359 8 585 46 143 24 131 21
275 58 112 28 284 80 330 100 11 5 63 26 115 46 139 56 289 128 420 203 63 36
117 68 120 72 3 3 26 18 51 33 59 33 283 201 369 276 246 212 518 528 670 776
24 39 53 86 65 105 39 61 133 247 181 358 25 59 52 121 59 137 61 135 165 521
190 700 3 28 9 66 12 85 21 139 27 241 28 460 0 217 -7 355 -24 465 -6 33 -12
78 -16 100 -5 36 -13 85 -20 125 -52 278 -196 685 -327 928 -85 158 -243 410
-299 475 -5 7 -42 53 -83 103 -87 110 -132 160 -251 279 -508 508 -1170 848
-1877 964 -216 35 -313 43 -546 45 -106 2 -193 1 -195 0z"/>
</g>
</svg>
